<mxfile host="app.diagrams.net" modified="2024-02-18T19:20:10.608Z" agent="Mozilla/5.0 (X11; Linux x86_64; rv:122.0) Gecko/20100101 Firefox/122.0" etag="6bn_sZxbejKzA0IY_TgF" version="23.1.4" type="device">
  <diagram name="Page-1" id="vgfW7v4aOqBMmMdagaeB">
    <mxGraphModel dx="1991" dy="1039" grid="1" gridSize="10" guides="1" tooltips="1" connect="1" arrows="1" fold="1" page="1" pageScale="1" pageWidth="850" pageHeight="1100" math="0" shadow="0">
      <root>
        <mxCell id="0" />
        <mxCell id="1" parent="0" />
        <mxCell id="2L_IoLu82APx47XbIsqz-1" value="" style="rounded=0;whiteSpace=wrap;html=1;strokeWidth=2;" vertex="1" parent="1">
          <mxGeometry x="80" y="160" width="720" height="160" as="geometry" />
        </mxCell>
        <mxCell id="2L_IoLu82APx47XbIsqz-2" value="1 MiB" style="text;html=1;align=left;verticalAlign=middle;whiteSpace=wrap;rounded=0;fontSize=14;" vertex="1" parent="1">
          <mxGeometry x="80" y="130" width="60" height="30" as="geometry" />
        </mxCell>
        <mxCell id="2L_IoLu82APx47XbIsqz-3" value="3 MiB" style="text;html=1;align=right;verticalAlign=middle;whiteSpace=wrap;rounded=0;fontSize=14;" vertex="1" parent="1">
          <mxGeometry x="740" y="130" width="60" height="30" as="geometry" />
        </mxCell>
        <mxCell id="2L_IoLu82APx47XbIsqz-4" value="Bump Memory (not at scale)" style="text;html=1;align=center;verticalAlign=middle;whiteSpace=wrap;rounded=0;fontSize=16;" vertex="1" parent="1">
          <mxGeometry x="296" y="130" width="257.5" height="30" as="geometry" />
        </mxCell>
        <mxCell id="2L_IoLu82APx47XbIsqz-5" value="" style="rounded=0;whiteSpace=wrap;html=1;fillColor=none;strokeColor=default;dashed=1;" vertex="1" parent="1">
          <mxGeometry x="80" y="160" width="30" height="160" as="geometry" />
        </mxCell>
        <mxCell id="2L_IoLu82APx47XbIsqz-6" value="GDT" style="text;html=1;align=center;verticalAlign=middle;whiteSpace=wrap;rounded=0;rotation=-90;" vertex="1" parent="1">
          <mxGeometry x="65" y="225" width="60" height="30" as="geometry" />
        </mxCell>
        <mxCell id="2L_IoLu82APx47XbIsqz-7" value="" style="rounded=0;whiteSpace=wrap;html=1;fillColor=none;strokeColor=default;dashed=1;" vertex="1" parent="1">
          <mxGeometry x="110" y="160" width="50" height="160" as="geometry" />
        </mxCell>
        <mxCell id="2L_IoLu82APx47XbIsqz-8" value="Boot Info" style="text;html=1;align=center;verticalAlign=middle;whiteSpace=wrap;rounded=0;rotation=-90;" vertex="1" parent="1">
          <mxGeometry x="105" y="225" width="60" height="30" as="geometry" />
        </mxCell>
        <mxCell id="2L_IoLu82APx47XbIsqz-10" value="" style="rounded=0;whiteSpace=wrap;html=1;fillColor=none;strokeColor=default;dashed=1;" vertex="1" parent="1">
          <mxGeometry x="160" y="160" width="190" height="160" as="geometry" />
        </mxCell>
        <mxCell id="2L_IoLu82APx47XbIsqz-11" value="Page Tables" style="text;html=1;align=center;verticalAlign=middle;whiteSpace=wrap;rounded=0;rotation=-90;" vertex="1" parent="1">
          <mxGeometry x="200" y="225" width="80" height="30" as="geometry" />
        </mxCell>
        <mxCell id="2L_IoLu82APx47XbIsqz-12" value="" style="rounded=0;whiteSpace=wrap;html=1;fillColor=none;strokeColor=default;dashed=1;" vertex="1" parent="1">
          <mxGeometry x="350" y="160" width="70" height="160" as="geometry" />
        </mxCell>
        <mxCell id="2L_IoLu82APx47XbIsqz-13" value="Kernel .bss" style="text;html=1;align=center;verticalAlign=middle;whiteSpace=wrap;rounded=0;rotation=-90;" vertex="1" parent="1">
          <mxGeometry x="345" y="225" width="80" height="30" as="geometry" />
        </mxCell>
        <mxCell id="2L_IoLu82APx47XbIsqz-14" value="" style="rounded=0;whiteSpace=wrap;html=1;fillColor=none;strokeColor=default;dashed=1;" vertex="1" parent="1">
          <mxGeometry x="420" y="160" width="380" height="160" as="geometry" />
        </mxCell>
        <mxCell id="2L_IoLu82APx47XbIsqz-15" value="Kernel heap" style="text;html=1;align=center;verticalAlign=middle;whiteSpace=wrap;rounded=0;rotation=-90;" vertex="1" parent="1">
          <mxGeometry x="570" y="225" width="80" height="30" as="geometry" />
        </mxCell>
        <mxCell id="2L_IoLu82APx47XbIsqz-16" value="" style="shape=curlyBracket;whiteSpace=wrap;html=1;rounded=1;flipH=1;labelPosition=right;verticalLabelPosition=middle;align=left;verticalAlign=middle;rotation=90;strokeWidth=2;" vertex="1" parent="1">
          <mxGeometry x="230" y="190" width="40" height="340" as="geometry" />
        </mxCell>
        <mxCell id="2L_IoLu82APx47XbIsqz-17" value="Managed by the Pre-kernel" style="text;html=1;align=center;verticalAlign=middle;whiteSpace=wrap;rounded=0;fontSize=14;" vertex="1" parent="1">
          <mxGeometry x="200" y="390" width="100" height="30" as="geometry" />
        </mxCell>
        <mxCell id="2L_IoLu82APx47XbIsqz-18" value="" style="shape=curlyBracket;whiteSpace=wrap;html=1;rounded=1;flipH=1;labelPosition=right;verticalLabelPosition=middle;align=left;verticalAlign=middle;rotation=90;strokeWidth=2;" vertex="1" parent="1">
          <mxGeometry x="591.5" y="172.5" width="40" height="375" as="geometry" />
        </mxCell>
        <mxCell id="2L_IoLu82APx47XbIsqz-19" value="Managed by the Kernel" style="text;html=1;align=center;verticalAlign=middle;whiteSpace=wrap;rounded=0;fontSize=14;" vertex="1" parent="1">
          <mxGeometry x="561.5" y="390" width="100" height="30" as="geometry" />
        </mxCell>
      </root>
    </mxGraphModel>
  </diagram>
</mxfile>
